<?xml version="1.0" encoding="UTF-8" standalone="no"?>
<svg width="17px" height="17px" viewBox="0 0 17 17" version="1.1" xmlns="http://www.w3.org/2000/svg" xmlns:xlink="http://www.w3.org/1999/xlink">
    <!-- Generator: sketchtool 40.2 (33826) - http://www.bohemiancoding.com/sketch -->
    <title>713A9DCD-7954-4CB5-9D44-8B70B645E3E8</title>
    <desc>Created with sketchtool.</desc>
    <defs></defs>
    <g id="StyleGuide" stroke="none" stroke-width="1" fill="none" fill-rule="evenodd">
        <g transform="translate(-2216.000000, -515.000000)" id="close_window" stroke="#074255" fill="#074255">
            <g transform="translate(2217.000000, 516.000000)">
                <path d="M9.10583806,7.50004967 L14.6672722,13.0615134 C15.1108773,13.5047034 15.1108773,14.2245387 14.6674642,14.6675369 C14.4521039,14.8828983 14.1629315,15 13.8644471,15 C13.5661157,15 13.2769559,14.8828588 13.0616351,14.6675369 L7.50001202,9.10588423 L1.93838887,14.6675369 C1.72294643,14.8829805 1.43452728,15 1.13557688,15 C0.837092459,15 0.54792008,14.8828983 0.332751783,14.6677288 C-0.110853249,14.2245387 -0.110853249,13.5047034 0.332559764,13.0617053 L5.89418596,7.50004964 L0.332751783,1.93858592 C-0.110853249,1.49539586 -0.110853249,0.775560552 0.332367836,0.332754433 C0.775556733,-0.110854132 1.4953919,-0.110854132 1.93838887,0.332562413 L7.50001201,5.89421509 L13.0614432,0.332754433 C13.5046321,-0.110854132 14.2244673,-0.110854132 14.6672722,0.332370484 C15.1108773,0.775560552 15.1108773,1.49539586 14.6674642,1.93839399 L9.10583806,7.50004967 Z" id="btn_close"></path>
            </g>
        </g>
    </g>
</svg>