<?xml version="1.0" encoding="UTF-8" standalone="no"?>
<svg width="17px" height="17px" viewBox="0 0 17 17" version="1.1" xmlns="http://www.w3.org/2000/svg" xmlns:xlink="http://www.w3.org/1999/xlink">
    <!-- Generator: sketchtool 40.2 (33826) - http://www.bohemiancoding.com/sketch -->
    <title>71E1D92D-EEA0-4316-B73A-F545F2C919C3</title>
    <desc>Created with sketchtool.</desc>
    <defs></defs>
    <g id="StyleGuide" stroke="none" stroke-width="1" fill="none" fill-rule="evenodd">
        <g transform="translate(-2256.000000, -515.000000)" id="close_window" stroke="#D7E6ED" fill="#D7E6ED">
            <g transform="translate(2217.000000, 516.000000)">
                <path d="M49.1058381,7.50004967 L54.6672722,13.0615134 C55.1108773,13.5047034 55.1108773,14.2245387 54.6674642,14.6675369 C54.4521039,14.8828983 54.1629315,15 53.8644471,15 C53.5661157,15 53.2769559,14.8828588 53.0616351,14.6675369 L47.500012,9.10588423 L41.9383889,14.6675369 C41.7229464,14.8829805 41.4345273,15 41.1355769,15 C40.8370925,15 40.5479201,14.8828983 40.3327518,14.6677288 C39.8891468,14.2245387 39.8891468,13.5047034 40.3325598,13.0617053 L45.894186,7.50004964 L40.3327518,1.93858592 C39.8891468,1.49539586 39.8891468,0.775560552 40.3323678,0.332754433 C40.7755567,-0.110854132 41.4953919,-0.110854132 41.9383889,0.332562413 L47.500012,5.89421509 L53.0614432,0.332754433 C53.5046321,-0.110854132 54.2244673,-0.110854132 54.6672722,0.332370484 C55.1108773,0.775560552 55.1108773,1.49539586 54.6674642,1.93839399 L49.1058381,7.50004967 Z" id="btn_close_hover"></path>
            </g>
        </g>
    </g>
</svg>