<?xml version="1.0" encoding="UTF-8" standalone="no"?>
<svg width="14px" height="14px" viewBox="0 0 14 14" version="1.1" xmlns="http://www.w3.org/2000/svg" xmlns:xlink="http://www.w3.org/1999/xlink">
    <!-- Generator: sketchtool 40.2 (33826) - http://www.bohemiancoding.com/sketch -->
    <title>697A6EF4-824F-4BCA-A871-564761E418A4</title>
    <desc>Created with sketchtool.</desc>
    <defs></defs>
    <g id="StyleGuide" stroke="none" stroke-width="1" fill="none" fill-rule="evenodd">
        <g transform="translate(-2075.000000, -596.000000)" id="quick_edit" stroke="#074255" fill="#074255">
            <g transform="translate(1771.000000, 473.000000)">
                <g id="Group" transform="translate(2.000000, 116.000000)">
                    <g id="icon_cancel_edit" transform="translate(296.000000, 1.000000)">
                        <path d="M14.1929051,13.0000191 L18.324276,17.1314053 C18.6538128,17.4606333 18.6538128,17.9953698 18.3244187,18.3244552 C18.1644359,18.4844385 17.9496211,18.5714286 17.7278888,18.5714286 C17.5062701,18.5714286 17.2914646,18.4844091 17.1315113,18.3244552 L13,14.1929286 L8.8684887,18.3244552 C8.70844497,18.4844995 8.49418972,18.5714286 8.27211121,18.5714286 C8.05037886,18.5714286 7.83556406,18.4844385 7.67572399,18.3245978 C7.34618724,17.9953698 7.34618724,17.4606333 7.67558135,17.1315479 L11.8070949,13.000019 L7.67572399,8.86863277 C7.34618724,8.53940481 7.34618724,8.0046683 7.67543877,7.67572556 C8.00466639,7.34618672 8.53940365,7.34618672 8.8684887,7.67558292 L13,11.8071096 L17.1313687,7.67572556 C17.4605963,7.34618672 17.9953336,7.34618672 18.324276,7.67544034 C18.6538128,8.0046683 18.6538128,8.53940481 18.3244187,8.8684902 L14.1929051,13.0000191 Z" id="Combined-Shape"></path>
                    </g>
                </g>
            </g>
        </g>
    </g>
</svg>