<?xml version="1.0" encoding="UTF-8" standalone="no"?>
<svg width="15px" height="12px" viewBox="0 0 15 12" version="1.1" xmlns="http://www.w3.org/2000/svg" xmlns:xlink="http://www.w3.org/1999/xlink">
    <!-- Generator: sketchtool 40.2 (33826) - http://www.bohemiancoding.com/sketch -->
    <title>D997940B-3B63-4998-93F9-98CBCE06BA61</title>
    <desc>Created with sketchtool.</desc>
    <defs></defs>
    <g id="StyleGuide" stroke="none" stroke-width="1" fill="none" fill-rule="evenodd">
        <g transform="translate(-2404.000000, -988.000000)" id="form_dropdown_open" fill="#074255">
            <g transform="translate(57.000000, 971.000000)">
                <path d="M2361.72906,18.5870307 L2360.41297,17.2709391 C2360.23242,17.0902734 2360.01292,17 2359.75492,17 C2359.49681,17 2359.27731,17.0902734 2359.09676,17.2709391 L2352.7484,23.6290395 L2349.90324,20.7741422 C2349.72258,20.5934765 2349.50319,20.5032031 2349.2452,20.5032031 C2348.98708,20.5032031 2348.7677,20.5934765 2348.58703,20.7741422 L2347.27094,22.0902338 C2347.09027,22.2708994 2347,22.4902876 2347,22.7483984 C2347,23.0063904 2347.09027,23.2258973 2347.27094,23.4064442 L2350.77414,26.9096473 L2352.09035,28.2257389 C2352.2709,28.4064046 2352.49029,28.496678 2352.7484,28.496678 C2353.00639,28.496678 2353.22578,28.4062858 2353.40644,28.2257389 L2354.72265,26.9096473 L2361.72906,19.9032411 C2361.90961,19.7225755 2362,19.5031873 2362,19.2450765 C2362.00012,18.9870845 2361.90961,18.7676964 2361.72906,18.5870307 L2361.72906,18.5870307 Z" id="icon_check"></path>
            </g>
        </g>
    </g>
</svg>