<?xml version="1.0" encoding="UTF-8" standalone="no"?>
<svg width="14px" height="11px" viewBox="0 0 14 11" version="1.1" xmlns="http://www.w3.org/2000/svg" xmlns:xlink="http://www.w3.org/1999/xlink">
    <!-- Generator: sketchtool 40.2 (33826) - http://www.bohemiancoding.com/sketch -->
    <title>3D33883F-4DE9-4A7D-AC6B-1203EBF02951</title>
    <desc>Created with sketchtool.</desc>
    <defs></defs>
    <g id="StyleGuide" stroke="none" stroke-width="1" fill="none" fill-rule="evenodd">
        <g transform="translate(-1392.000000, -816.000000)" id="Message" fill="#074255">
            <g transform="translate(1392.000000, 772.000000)">
                <path d="M5.23397098,55 L5.23397098,55 C4.87282159,54.9770549 4.53153117,54.8136487 4.27648537,54.5348968 L4.19137554,54.4418762 L0.425549161,50.3489683 C0.148658507,50.0463412 0,49.6745687 0,49.256596 C0,48.837383 0.148658507,48.4426655 0.404555402,48.1642237 C0.6593175,47.8612865 1.02188539,47.6991205 1.40402853,47.6991205 C1.78759018,47.6991205 2.12774581,47.8612865 2.40378536,48.1409685 L5.29837075,51.2791747 L11.5962146,44.4421581 C11.8512604,44.1634062 12.2135446,44 12.5959715,44 C12.9792494,44 13.3406825,44.162166 13.5954446,44.4651032 C13.8504904,44.7677303 14,45.1398128 14,45.5574755 C14,45.9766885 13.8513415,46.3484609 13.5744508,46.6501579 L6.38323742,54.4431165 C6.36224366,54.4660616 6.3412499,54.513192 6.29784388,54.5361371 C6.06407555,54.7919438 5.74491367,54.9553501 5.40475804,54.9782952 L5.23397098,54.9782952 L5.23397098,55 Z" id="icon_approved"></path>
            </g>
        </g>
    </g>
</svg>