<?xml version="1.0" encoding="UTF-8" standalone="no"?>
<svg width="20px" height="22px" viewBox="0 0 20 22" version="1.1" xmlns="http://www.w3.org/2000/svg" xmlns:xlink="http://www.w3.org/1999/xlink">
    <!-- Generator: sketchtool 41 (35326) - http://www.bohemiancoding.com/sketch -->
    <title>58A37158-FFE3-452A-8EE7-A35C9E0D04ED</title>
    <desc>Created with sketchtool.</desc>
    <defs></defs>
    <g id="Page-1" stroke="none" stroke-width="1" fill="none" fill-rule="evenodd">
        <g id="Search_page--hover" transform="translate(-30.000000, -142.000000)" fill="#074255">
            <g id="Group-5">
                <g id="PageHeader" transform="translate(13.000000, 23.000000)">
                    <g id="hover" transform="translate(0.000000, 36.000000)">
                        <g id="Group-4-Copy" transform="translate(17.000000, 83.000000)">
                            <g id="Group-5">
                                <path d="M12.649,9.289 C11.915,9.644 11.09,9.842 10.22,9.842 C9.172,9.842 8.192,9.554 7.353,9.053 C6.9,9.142 6.463,9.257 6.046,9.397 L5.162,8.225 C4.732,7.655 4.548,7.758 4.302,8.585 L3.711,10.577 C2.896,11.166 2.259,11.88 1.863,12.673 L0.388,12.673 C0.174,12.673 0,12.849 0,13.063 L0,16.205 C0,16.418 0.174,16.594 0.388,16.594 L1.91,16.594 C2.501,17.713 3.572,18.668 4.947,19.332 L4.947,21.254 C4.947,21.413 5.076,21.541 5.234,21.541 L7.927,21.541 C8.085,21.541 8.214,21.413 8.214,21.254 L8.214,20.253 C8.638,20.302 9.074,20.328 9.518,20.328 C10.276,20.328 11.009,20.254 11.706,20.117 L11.706,21.212 C11.706,21.394 11.853,21.541 12.035,21.541 L14.644,21.541 C14.826,21.541 14.972,21.394 14.972,21.212 L14.972,18.839 C16.47,17.877 17.458,16.526 17.615,15.012 C17.785,15.133 18.014,15.207 18.266,15.207 C18.795,15.207 19.222,14.883 19.222,14.483 C19.222,14.084 18.795,13.76 18.266,13.76 C18.002,13.76 17.763,13.841 17.589,13.972 C17.271,11.855 15.323,10.081 12.649,9.289 M5.036,12.352 C4.618,12.352 4.279,12.691 4.279,13.109 C4.279,13.527 4.618,13.867 5.036,13.867 C5.454,13.867 5.793,13.527 5.793,13.109 C5.793,12.691 5.454,12.352 5.036,12.352 M10.22,1.244 C8.562,1.244 7.218,2.588 7.218,4.245 C7.218,5.902 8.562,7.246 10.22,7.246 C11.878,7.246 13.221,5.902 13.221,4.245 C13.221,2.588 11.878,1.244 10.22,1.244 M10.22,0 C7.877,0 5.976,1.901 5.976,4.245 C5.976,6.589 7.877,8.49 10.22,8.49 C12.564,8.49 14.464,6.589 14.464,4.245 C14.464,1.901 12.564,0 10.22,0 M11.949,2.983 L10.851,3.157 C10.796,3.017 10.747,2.921 10.703,2.867 C10.515,2.636 9.984,2.599 9.791,2.841 C9.741,2.903 9.715,2.974 9.715,3.057 C9.715,3.143 9.741,3.219 9.791,3.282 C9.841,3.347 9.928,3.4 10.052,3.443 L10.483,3.555 C11.082,3.714 11.48,3.882 11.681,4.06 C11.946,4.297 12.079,4.599 12.079,4.966 C12.079,5.179 12.032,5.376 11.936,5.556 C11.839,5.734 11.718,5.884 11.57,6.004 C11.421,6.124 11.263,6.21 11.096,6.265 C10.929,6.319 10.724,6.352 10.483,6.36 L10.483,6.918 L10.052,6.918 L10.052,6.36 C9.763,6.335 9.529,6.289 9.349,6.22 C9.17,6.153 9.013,6.059 8.882,5.938 C8.752,5.819 8.652,5.69 8.58,5.551 C8.509,5.412 8.457,5.245 8.421,5.048 L9.613,4.91 C9.648,5.104 9.696,5.245 9.755,5.332 C9.972,5.646 10.592,5.692 10.851,5.407 C10.927,5.321 10.967,5.225 10.967,5.119 C10.967,5.026 10.934,4.942 10.868,4.863 C10.802,4.786 10.674,4.714 10.483,4.646 L10.052,4.52 C9.656,4.41 9.373,4.314 9.207,4.234 C9.041,4.153 8.897,4.024 8.775,3.846 C8.654,3.668 8.591,3.451 8.591,3.196 C8.591,2.845 8.714,2.553 8.96,2.318 C9.205,2.083 9.569,1.952 10.052,1.927 L10.052,1.635 L10.483,1.635 L10.483,1.927 C10.923,1.954 11.26,2.059 11.493,2.24 C11.726,2.42 11.879,2.668 11.949,2.983 M5.443,11.482 C6.202,11.482 6.818,12.097 6.818,12.856 C6.818,13.615 6.202,14.23 5.443,14.23 C4.684,14.23 4.069,13.615 4.069,12.856 C4.069,12.097 4.684,11.482 5.443,11.482" id="icon_cost"></path>
                            </g>
                        </g>
                    </g>
                </g>
            </g>
        </g>
    </g>
</svg>