<?xml version="1.0" encoding="UTF-8" standalone="no"?>
<svg width="25px" height="24px" viewBox="0 0 25 24" version="1.1" xmlns="http://www.w3.org/2000/svg" xmlns:xlink="http://www.w3.org/1999/xlink">
    <!-- Generator: sketchtool 41 (35326) - http://www.bohemiancoding.com/sketch -->
    <title>E2301BFB-DF45-4E4E-9E62-C2F325D58E7C</title>
    <desc>Created with sketchtool.</desc>
    <defs></defs>
    <g id="Symbols" stroke="none" stroke-width="1" fill="none" fill-rule="evenodd">
        <g id="PageHeader" transform="translate(-19.000000, -18.000000)" fill="#FFFFFF">
            <g id="Header">
                <g id="icon_dashboard" transform="translate(19.967213, 18.000000)">
                    <path d="M10.0897002,0 L0.576966419,0 C0.258948024,0 0,0.257574294 0,0.576966419 L0,10.0897002 C0,10.4077186 0.257574294,10.6666667 0.576966419,10.6666667 L10.0897002,10.6666667 C10.4077186,10.6666667 10.6666667,10.4090924 10.6666667,10.0897002 L10.6666667,0.576966419 C10.6666667,0.258948024 10.4090924,0 10.0897002,0 L10.0897002,0 Z" id="Fill-1"></path>
                    <path d="M23.4230893,0 L13.9099006,0 C13.5919129,0 13.3333333,0.257574294 13.3333333,0.576966419 L13.3333333,10.0897002 C13.3333333,10.4077186 13.5908828,10.6666667 13.9099006,10.6666667 L23.4230893,10.6666667 C23.741077,10.6666667 24,10.4090924 24,10.0897002 L24,0.576966419 C24,0.258948024 23.741077,0 23.4230893,0 L23.4230893,0 Z" id="Fill-2"></path>
                    <path d="M10.0897002,13.3333333 L0.576966419,13.3333333 C0.258948024,13.3333333 0,13.5909076 0,13.9102998 L0,23.4230336 C0,23.741052 0.257574294,24 0.576966419,24 L10.0897002,24 C10.4077186,24 10.6666667,23.741052 10.6666667,23.4230336 L10.6666667,13.9102998 C10.6666667,13.5922814 10.4090924,13.3333333 10.0897002,13.3333333 L10.0897002,13.3333333 Z" id="Fill-3"></path>
                    <path d="M23.4230893,13.3333333 L13.9099006,13.3333333 C13.5919129,13.3333333 13.3333333,13.5909076 13.3333333,13.9102998 L13.3333333,23.4230336 C13.3333333,23.741052 13.5908828,24 13.9099006,24 L23.4230893,24 C23.741077,24 24,23.741052 24,23.4230336 L24,13.9102998 C24,13.5922814 23.741077,13.3333333 23.4230893,13.3333333 L23.4230893,13.3333333 Z" id="Fill-4"></path>
                </g>
            </g>
        </g>
    </g>
</svg>