<?xml version="1.0" encoding="UTF-8" standalone="no"?>
<svg width="16px" height="16px" viewBox="0 0 16 16" version="1.1" xmlns="http://www.w3.org/2000/svg" xmlns:xlink="http://www.w3.org/1999/xlink">
    <!-- Generator: sketchtool 40.2 (33826) - http://www.bohemiancoding.com/sketch -->
    <title>B853C2A6-84B2-429F-86B7-08DE5640B018</title>
    <desc>Created with sketchtool.</desc>
    <defs></defs>
    <g id="StyleGuide" stroke="none" stroke-width="1" fill="none" fill-rule="evenodd">
        <g transform="translate(-1969.000000, -529.000000)" id="quick_edit" fill="#074255">
            <g transform="translate(1771.000000, 473.000000)">
                <g id="form_small_edit" transform="translate(2.000000, 49.000000)">
                    <path d="M209.57874,12.6173151 L206.382685,9.42126027 L207.145644,8.65830137 L210.341699,11.8543562 L209.57874,12.6173151 Z M201.067616,21.137863 L197.871562,17.9409315 L205.827945,9.98717808 L209.024,13.1841096 L201.067616,21.137863 Z M211.602849,10.6335342 C212.116384,10.1197808 212.116384,9.29786301 211.602849,8.78432877 L210.267178,7.44865753 C209.753425,6.93490411 208.880219,6.93490411 208.417753,7.44865753 L207.749918,8.11649315 L210.986301,11.3526575 L211.602849,10.6335342 Z M196.037699,22.4485479 C195.986411,22.6028493 196.037699,22.7569315 196.140493,22.8595068 C196.191781,22.9110137 196.294575,22.9623014 196.397151,22.9623014 L196.551452,22.9623014 L200.404164,21.5753425 L197.424658,18.5958356 L196.037699,22.4485479 Z" id="icon_edit"></path>
                </g>
            </g>
        </g>
    </g>
</svg>