<?xml version="1.0" encoding="utf-8"?>
<!-- Generator: Adobe Illustrator 20.1.0, SVG Export Plug-In . SVG Version: 6.00 Build 0)  -->
<svg version="1.1" id="Layer_1" xmlns="http://www.w3.org/2000/svg" xmlns:xlink="http://www.w3.org/1999/xlink" x="0px" y="0px"
	 viewBox="0 0 14 13" style="enable-background:new 0 0 14 13;" xml:space="preserve">
<style type="text/css">
	.st0{enable-background:new    ;}
	.st1{fill:#C1292E;}
</style>
<title>1EFE6A51-079B-4372-86FB-64D7946FC52B</title>
<desc>Created with sketchtool.</desc>
<g id="Message" transform="translate(-1394.000000, -843.000000)">
	<g transform="translate(1392.000000, 772.000000)">
		<g id="warning" transform="translate(2.000000, 69.000000)">
			<g class="st0">
				<path class="st1" d="M7.9,2.5l6,11c0.2,0.3,0.2,0.7,0,1c-0.1,0.2-0.2,0.3-0.4,0.4C13.3,15,13.2,15,13,15H1c-0.2,0-0.3,0-0.5-0.1
					c-0.2-0.1-0.3-0.2-0.4-0.4c-0.2-0.3-0.2-0.7,0-1l6-11c0.1-0.2,0.2-0.3,0.4-0.4S6.8,2,7,2c0.2,0,0.4,0,0.5,0.1S7.8,2.4,7.9,2.5z
					 M8,9.8l0.1-3.6c0-0.1,0-0.1-0.1-0.1C8,6,7.9,6,7.9,6H6.1C6.1,6,6,6,6,6.1c-0.1,0-0.1,0.1-0.1,0.2L6,9.8c0,0.1,0,0.1,0.1,0.1
					C6.1,10,6.2,10,6.3,10h1.4c0.1,0,0.1,0,0.2-0.1C8,9.9,8,9.9,8,9.8z M8,12.7v-1.5c0-0.1,0-0.1-0.1-0.2c0,0-0.1-0.1-0.2-0.1H6.2
					c-0.1,0-0.1,0-0.2,0.1c0,0-0.1,0.1-0.1,0.2v1.5c0,0.1,0,0.1,0.1,0.2c0,0,0.1,0.1,0.2,0.1h1.5c0.1,0,0.1,0,0.2-0.1
					C8,12.9,8,12.8,8,12.7z"/>
			</g>
		</g>
	</g>
</g>
</svg>
