<?xml version="1.0" encoding="UTF-8" standalone="no"?>
<svg width="22px" height="22px" viewBox="0 0 22 22" version="1.1" xmlns="http://www.w3.org/2000/svg" xmlns:xlink="http://www.w3.org/1999/xlink">
    <!-- Generator: sketchtool 40.2 (33826) - http://www.bohemiancoding.com/sketch -->
    <title>40E6E504-9476-45B8-8D5C-EF4CCA1B29FD</title>
    <desc>Created with sketchtool.</desc>
    <defs></defs>
    <g id="StyleGuide" stroke="none" stroke-width="1" fill="none" fill-rule="evenodd">
        <g transform="translate(-1692.000000, -1238.000000)" id="form_text_calendar_open" fill="#FFFFFF">
            <g transform="translate(921.000000, 1202.000000)">
                <g id="icon_calendar" transform="translate(771.000000, 36.000000)">
                    <path d="M18.9880952,2.93940625 L16.0554603,2.93940625 L16.0554603,0.798875 C16.0554603,0.38671875 15.7142857,0.050875 15.2955873,0.050875 C14.8768889,0.050875 14.5357143,0.38671875 14.5357143,0.798875 L14.5357143,2.93940625 L7.46428571,2.93940625 L7.46428571,0.798875 C7.46428571,0.38671875 7.12311111,0.050875 6.7044127,0.050875 C6.28571429,0.050875 5.94453968,0.38671875 5.94453968,0.798875 L5.94453968,2.93940625 L3.01190476,2.93940625 C1.44047619,2.93940625 0.156793651,4.20303125 0.156793651,5.74990625 L0.156793651,19.0014687 C0.156793651,20.5483437 1.44047619,21.8119687 3.01190476,21.8119687 L18.9880952,21.8119687 C20.5595238,21.8119687 21.8432063,20.5483437 21.8432063,19.0014687 L21.8432063,5.74990625 C21.8432063,4.20303125 20.5595238,2.93940625 18.9880952,2.93940625 L18.9880952,2.93940625 Z M20.3234603,19.0000937 C20.3234603,19.7226562 19.7207302,20.3149375 18.9880952,20.3149375 L3.01190476,20.3149375 C2.27787302,20.3149375 1.67653968,19.7212812 1.67653968,19.0000937 L1.67653968,5.74990625 C1.67653968,5.02734375 2.27926984,4.4350625 3.01190476,4.4350625 L5.94453968,4.4350625 L5.94453968,5.4663125 C5.94453968,5.8788125 6.28571429,6.2143125 6.7044127,6.2143125 C7.12311111,6.2143125 7.46428571,5.8788125 7.46428571,5.4663125 L7.46428571,4.4350625 L14.509873,4.4350625 L14.509873,5.4663125 C14.509873,5.8788125 14.8506984,6.2143125 15.269746,6.2143125 C15.6884444,6.2143125 16.0292698,5.8788125 16.0292698,5.4663125 L16.0292698,4.4350625 L18.962254,4.4350625 C19.6959365,4.4350625 20.297619,5.02871875 20.297619,5.74990625 L20.297619,19.0000937 L20.3234603,19.0000937 Z" id="Fill-1"></path>
                    <path d="M7.01974603,9.64253125 L4.21631746,9.64253125 C3.79761905,9.64253125 3.45644444,9.97803125 3.45644444,10.3905313 C3.45644444,10.8026875 3.79761905,11.1381875 4.21631746,11.1381875 L7.01834921,11.1381875 C7.43704762,11.1381875 7.77787302,10.8026875 7.77787302,10.3905313 C7.77787302,9.97803125 7.43844444,9.64253125 7.01974603,9.64253125 L7.01974603,9.64253125 Z" id="Fill-2"></path>
                    <path d="M7.01974603,16.6034688 L4.21631746,16.6034688 C3.79761905,16.6034688 3.45644444,16.9389688 3.45644444,17.3514688 C3.45644444,17.763625 3.79761905,18.099125 4.21631746,18.099125 L7.01834921,18.099125 C7.43704762,18.099125 7.77787302,17.763625 7.77787302,17.3514688 C7.77787302,16.9389688 7.43844444,16.6034688 7.01974603,16.6034688 L7.01974603,16.6034688 Z" id="Fill-3"></path>
                    <path d="M7.01974603,13.123 L4.21631746,13.123 C3.79761905,13.123 3.45644444,13.4585 3.45644444,13.871 C3.45644444,14.2831563 3.79761905,14.6186563 4.21631746,14.6186563 L7.01834921,14.6186563 C7.43704762,14.6186563 7.77787302,14.2831563 7.77787302,13.871 C7.77787302,13.4585 7.43844444,13.123 7.01974603,13.123 L7.01974603,13.123 Z" id="Fill-4"></path>
                    <path d="M12.4146349,9.64253125 L9.58536508,9.64253125 C9.16666667,9.64253125 8.82549206,9.97803125 8.82549206,10.3905313 C8.82549206,10.8026875 9.16666667,11.1381875 9.58536508,11.1381875 L12.3873968,11.1381875 C12.8060952,11.1381875 13.1469206,10.8026875 13.1469206,10.3905313 C13.1469206,9.97803125 12.8333333,9.64253125 12.4146349,9.64253125 L12.4146349,9.64253125 Z" id="Fill-5"></path>
                    <path d="M12.4146349,16.6034688 L9.58536508,16.6034688 C9.16666667,16.6034688 8.82549206,16.9389688 8.82549206,17.3514688 C8.82549206,17.763625 9.16666667,18.099125 9.58536508,18.099125 L12.3873968,18.099125 C12.8060952,18.099125 13.1469206,17.763625 13.1469206,17.3514688 C13.1469206,16.9389688 12.8333333,16.6034688 12.4146349,16.6034688 L12.4146349,16.6034688 Z" id="Fill-6"></path>
                    <path d="M12.4146349,13.123 L9.58536508,13.123 C9.16666667,13.123 8.82549206,13.4585 8.82549206,13.871 C8.82549206,14.2831563 9.16666667,14.6186563 9.58536508,14.6186563 L12.3873968,14.6186563 C12.8060952,14.6186563 13.1469206,14.2831563 13.1469206,13.871 C13.1469206,13.4585 12.8333333,13.123 12.4146349,13.123 L12.4146349,13.123 Z" id="Fill-7"></path>
                    <path d="M17.7836825,9.64253125 L14.980254,9.64253125 C14.5615556,9.64253125 14.2207302,9.97803125 14.2207302,10.3905313 C14.2207302,10.8026875 14.5615556,11.1381875 14.980254,11.1381875 L17.7822857,11.1381875 C18.2009841,11.1381875 18.5421587,10.8026875 18.5421587,10.3905313 C18.5421587,9.97803125 18.202381,9.64253125 17.7836825,9.64253125 L17.7836825,9.64253125 Z" id="Fill-8"></path>
                    <path d="M17.7836825,16.6034688 L14.980254,16.6034688 C14.5615556,16.6034688 14.2207302,16.9389688 14.2207302,17.3514688 C14.2207302,17.763625 14.5615556,18.099125 14.980254,18.099125 L17.7822857,18.099125 C18.2009841,18.099125 18.5421587,17.763625 18.5421587,17.3514688 C18.5421587,16.9389688 18.202381,16.6034688 17.7836825,16.6034688 L17.7836825,16.6034688 Z" id="Fill-9"></path>
                    <path d="M17.7836825,13.123 L14.980254,13.123 C14.5615556,13.123 14.2207302,13.4585 14.2207302,13.871 C14.2207302,14.2831563 14.5615556,14.6186563 14.980254,14.6186563 L17.7822857,14.6186563 C18.2009841,14.6186563 18.5421587,14.2831563 18.5421587,13.871 C18.5421587,13.4585 18.202381,13.123 17.7836825,13.123 L17.7836825,13.123 Z" id="Fill-10"></path>
                </g>
            </g>
        </g>
    </g>
</svg>