<?xml version="1.0" encoding="UTF-8" standalone="no"?>
<svg width="15px" height="12px" viewBox="0 0 15 12" version="1.1" xmlns="http://www.w3.org/2000/svg" xmlns:xlink="http://www.w3.org/1999/xlink">
    <!-- Generator: sketchtool 40.2 (33826) - http://www.bohemiancoding.com/sketch -->
    <title>67BAB551-790F-49E2-BEBE-519BD163C7E7</title>
    <desc>Created with sketchtool.</desc>
    <defs></defs>
    <g id="StyleGuide" stroke="none" stroke-width="1" fill="none" fill-rule="evenodd">
        <g transform="translate(-2404.000000, -1089.000000)" id="form_dropdown_open" fill="#074255">
            <g transform="translate(57.000000, 971.000000)">
                <path d="M2361.72906,120.101031 L2360.41297,118.784939 C2360.23242,118.604273 2360.01292,118.514 2359.75492,118.514 C2359.49681,118.514 2359.27731,118.604273 2359.09676,118.784939 L2352.7484,125.143039 L2349.90324,122.288142 C2349.72258,122.107477 2349.50319,122.017203 2349.2452,122.017203 C2348.98708,122.017203 2348.7677,122.107477 2348.58703,122.288142 L2347.27094,123.604234 C2347.09027,123.784899 2347,124.004288 2347,124.262398 C2347,124.52039 2347.09027,124.739897 2347.27094,124.920444 L2350.77414,128.423647 L2352.09035,129.739739 C2352.2709,129.920405 2352.49029,130.010678 2352.7484,130.010678 C2353.00639,130.010678 2353.22578,129.920286 2353.40644,129.739739 L2354.72265,128.423647 L2361.72906,121.417241 C2361.90961,121.236575 2362,121.017187 2362,120.759077 C2362.00012,120.501085 2361.90961,120.281696 2361.72906,120.101031 L2361.72906,120.101031 Z" id="icon_check-copy"></path>
            </g>
        </g>
    </g>
</svg>