<?xml version="1.0" encoding="UTF-8" standalone="no"?>
<svg width="14px" height="12px" viewBox="0 0 14 12" version="1.1" xmlns="http://www.w3.org/2000/svg" xmlns:xlink="http://www.w3.org/1999/xlink">
    <!-- Generator: sketchtool 40.2 (33826) - http://www.bohemiancoding.com/sketch -->
    <title>02CD0E3C-841D-4B08-8BE9-A7B819B6DE1F</title>
    <desc>Created with sketchtool.</desc>
    <defs></defs>
    <g id="StyleGuide" stroke="none" stroke-width="1" fill="none" fill-rule="evenodd">
        <g transform="translate(-2108.000000, -597.000000)" id="quick_edit" fill="#074255">
            <g transform="translate(1771.000000, 473.000000)">
                <g id="Group" transform="translate(2.000000, 116.000000)">
                    <g id="icon_approved_edit" transform="translate(329.000000, 1.000000)">
                        <path d="M11.233971,18.5 L11.233971,18.5 C10.8728216,18.4770549 10.5315312,18.3136487 10.2764854,18.0348968 L10.1913755,17.9418762 L6.42554916,13.8489683 C6.14865851,13.5463412 6,13.1745687 6,12.756596 C6,12.337383 6.14865851,11.9426655 6.4045554,11.6642237 C6.6593175,11.3612865 7.02188539,11.1991205 7.40402853,11.1991205 C7.78759018,11.1991205 8.12774581,11.3612865 8.40378536,11.6409685 L11.2983708,14.7791747 L17.5962146,7.94215808 C17.8512604,7.66340625 18.2135446,7.5 18.5959715,7.5 C18.9792494,7.5 19.3406825,7.66216597 19.5954446,7.96510317 C19.8504904,8.2677303 20,8.63981283 20,9.05747548 C20,9.47668847 19.8513415,9.84846093 19.5744508,10.1501579 L12.3832374,17.9431165 C12.3622437,17.9660616 12.3412499,18.013192 12.2978439,18.0361371 C12.0640755,18.2919438 11.7449137,18.4553501 11.404758,18.4782952 L11.233971,18.4782952 L11.233971,18.5 Z" id="icon_approved" transform="translate(13.000000, 13.000000) rotate(-360.000000) translate(-13.000000, -13.000000) "></path>
                    </g>
                </g>
            </g>
        </g>
    </g>
</svg>