<?xml version="1.0" encoding="UTF-8" standalone="no"?>
<svg width="15px" height="12px" viewBox="0 0 15 12" version="1.1" xmlns="http://www.w3.org/2000/svg" xmlns:xlink="http://www.w3.org/1999/xlink">
    <!-- Generator: sketchtool 40.2 (33826) - http://www.bohemiancoding.com/sketch -->
    <title>852A6824-AEAD-4BA8-8C22-33ED1123DA5C</title>
    <desc>Created with sketchtool.</desc>
    <defs></defs>
    <g id="StyleGuide" stroke="none" stroke-width="1" fill="none" fill-rule="evenodd">
        <g transform="translate(-984.000000, -637.000000)" id="Checkbox" fill="#074255">
            <g transform="translate(978.000000, 478.000000)">
                <g id="check" transform="translate(0.000000, 152.000000)">
                    <path d="M20.7290608,8.5870307 L19.4129692,7.27093908 C19.2324223,7.09027343 19.0129153,7 18.7549234,7 C18.4968126,7 18.2773056,7.09027343 18.0967588,7.27093908 L11.7483984,13.6290395 L8.90324111,10.7741422 C8.72257546,10.5934765 8.50318727,10.5032031 8.2451953,10.5032031 C7.98708455,10.5032031 7.76769635,10.5934765 7.5870307,10.7741422 L6.27093908,12.0902338 C6.09027343,12.2708994 6,12.4902876 6,12.7483984 C6,13.0063904 6.09027343,13.2258973 6.27093908,13.4064442 L9.77414218,16.9096473 L11.0903526,18.2257389 C11.2708994,18.4064046 11.4902876,18.496678 11.7483984,18.496678 C12.0063904,18.496678 12.2257786,18.4062858 12.4064442,18.2257389 L13.7226546,16.9096473 L20.7290608,9.90324111 C20.9096077,9.72257546 20.9999999,9.50318727 20.9999999,9.24507652 C21.0001187,8.98708455 20.9096077,8.76769635 20.7290608,8.5870307 L20.7290608,8.5870307 Z" id="icon_check"></path>
                </g>
            </g>
        </g>
    </g>
</svg>