<?xml version="1.0" encoding="UTF-8" standalone="no"?>
<svg width="22px" height="23px" viewBox="0 0 22 23" version="1.1" xmlns="http://www.w3.org/2000/svg" xmlns:xlink="http://www.w3.org/1999/xlink">
    <!-- Generator: sketchtool 41 (35326) - http://www.bohemiancoding.com/sketch -->
    <title>9B1D2712-5031-4498-8120-2BF89EC77C07</title>
    <desc>Created with sketchtool.</desc>
    <defs></defs>
    <g id="Page-1" stroke="none" stroke-width="1" fill="none" fill-rule="evenodd">
        <g id="Search_page--hover" transform="translate(-28.000000, -224.000000)" fill="#074255">
            <path d="M37.1720172,224 C36.8060172,224.037667 36.4973505,224.381667 36.5000172,224.75 L36.5000172,225.25 C36.5000172,225.643333 36.8566838,226 37.2500172,226 L38.0000172,226 L38.0000172,226.625 C38.0000172,226.797 37.9870172,226.808667 37.9686838,226.836 C37.9506838,226.863333 37.8673505,226.966 37.5470172,227.109333 C37.5416838,227.112 37.5363505,227.114667 37.5313505,227.117333 C36.4933505,227.599 35.7500172,228.656333 35.7500172,229.906333 C35.7500172,230.730333 36.0716838,231.487 36.5936838,232.047 L31.0626838,235 L28.7500172,235 C28.7240172,234.998667 28.6980172,234.998667 28.6720172,235 C28.3060172,235.037667 27.9973505,235.381667 28.0000172,235.75 L28.0000172,246.25 C28.0000172,246.643333 28.3566838,247 28.7500172,247 L48.7500172,247 C49.1433505,247 49.5000172,246.643333 49.5000172,246.25 L49.5000172,235.75 C49.5000172,235.356667 49.1433505,235 48.7500172,235 L46.4373505,235 L40.9063505,232.047 C41.4283505,231.487 41.7500172,230.730333 41.7500172,229.906333 C41.7553505,229.510333 41.3960172,229.146 41.0000172,229.146 C40.6040172,229.146 40.2446838,229.510333 40.2500172,229.906333 C40.2500172,230.515667 39.9426838,231.027333 39.4923505,231.297 L39.2110172,231.148333 C39.1980172,231.140667 39.1850172,231.132667 39.1720172,231.125 L39.1483505,231.109333 C39.0900172,231.075667 39.0260172,231.048333 38.9610172,231.031333 C38.9556838,231.028667 38.9506838,231.026 38.9453505,231.023333 C38.9050172,231.011667 38.8620172,231.004 38.8203505,231 L38.7970172,231 C38.7786838,230.996 38.7603505,230.993333 38.7423505,230.992333 C38.7186838,230.991 38.6953505,230.991 38.6720172,230.992333 C38.6483505,230.996 38.6250172,231.001333 38.6016838,231.007667 C38.5963505,231.010333 38.5910172,231.013 38.5860172,231.015667 C38.4793505,231.037667 38.3763505,231.083333 38.2890172,231.148333 L38.0076838,231.297 C37.5573505,231.027333 37.2500172,230.515667 37.2500172,229.906333 C37.2500172,229.247333 37.6223505,228.726667 38.1563505,228.476667 C38.1590172,228.475333 38.1613505,228.478 38.1640172,228.476667 C38.6290172,228.268333 38.9843505,228.017 39.2186838,227.664 C39.4530172,227.31 39.5000172,226.918 39.5000172,226.625 L39.5000172,226 L40.2500172,226 C40.6433505,226 41.0000172,225.643333 41.0000172,225.25 L41.0000172,224.75 C41.0000172,224.356667 40.6433505,224 40.2500172,224 L37.1720172,224 Z M38.1173505,232.929667 C38.3203505,232.975333 38.5340172,233 38.7500172,233 C38.9660172,233 39.1796838,232.975333 39.3826838,232.929667 L43.2576838,235 L34.2423505,235 L38.1173505,232.929667 Z M29.5000172,236.5 L30.5000172,236.5 L30.5000172,245.5 L29.5000172,245.5 L29.5000172,236.5 Z M32.0000172,236.5 L33.0000172,236.5 L33.0000172,245.5 L32.0000172,245.5 L32.0000172,236.5 Z M34.5000172,236.5 L35.5000172,236.5 L35.5000172,245.5 L34.5000172,245.5 L34.5000172,236.5 Z M37.0000172,236.5 L38.0000172,236.5 L38.0000172,245.5 L37.0000172,245.5 L37.0000172,236.5 Z M39.5000172,236.5 L40.5000172,236.5 L40.5000172,245.5 L39.5000172,245.5 L39.5000172,236.5 Z M42.0000172,236.5 L43.0000172,236.5 L43.0000172,245.5 L42.0000172,245.5 L42.0000172,236.5 Z M44.5000172,236.5 L45.5000172,236.5 L45.5000172,245.5 L44.5000172,245.5 L44.5000172,236.5 Z M47.0000172,236.5 L48.0000172,236.5 L48.0000172,245.5 L47.0000172,245.5 L47.0000172,236.5 Z" id="icon_order"></path>
        </g>
    </g>
</svg>