<?xml version="1.0" encoding="UTF-8" standalone="no"?>
<svg width="21px" height="28px" viewBox="0 0 21 28" version="1.1" xmlns="http://www.w3.org/2000/svg" xmlns:xlink="http://www.w3.org/1999/xlink">
    <!-- Generator: sketchtool 41 (35326) - http://www.bohemiancoding.com/sketch -->
    <title>051483BB-8494-4FF9-9BEE-BAA8431686F5</title>
    <desc>Created with sketchtool.</desc>
    <defs></defs>
    <g id="Page-1" stroke="none" stroke-width="1" fill="none" fill-rule="evenodd">
        <g id="Search_page--hover" transform="translate(-29.000000, -265.000000)" fill="#074255">
            <g id="icon_business" transform="translate(29.000000, 265.000000)">
                <g>
                    <path d="M14.7673585,2.82962319 C14.7673585,4.28318841 13.6171132,5.46081159 12.1978302,5.46081159 C10.7785472,5.46081159 9.62869811,4.28318841 9.62869811,2.82962319 C9.62869811,1.37605797 10.7785472,0.198028986 12.1978302,0.198028986 C13.6171132,0.198028986 14.7673585,1.37605797 14.7673585,2.82962319" id="Fill-1"></path>
                    <path d="M19.9987358,13.5942029 L15.8645094,11.6475942 L13.3044906,7.15866667 C12.8016792,6.03298551 11.1097925,5.89217391 10.0574151,6.52602899 L5.39224528,9.63768116 C5.22384906,9.80081159 5.103,10.0211594 5.061,10.2731594 L4.25309434,15.154087 C4.22060377,15.3537391 4.24081132,15.5501449 4.30262264,15.7278841 L0.916075472,15.7278841 C0.609792453,15.7278841 0.360566038,16.039942 0.360566038,16.4238261 L0.360566038,21.6038261 C0.360566038,21.9893333 0.609792453,22.2997681 0.916075472,22.2997681 L6.34596226,22.2997681 L3.91907547,25.4686377 C2.81083019,26.914087 4.767,28.6610435 5.86771698,27.2249275 L9.14411321,23.2570435 C9.32360377,23.0224928 9.42107547,22.7469565 9.4365283,22.4693913 L10.1101132,18.3497391 L13.2858679,26.8950145 C13.926566,28.6196522 16.2793585,27.5909565 15.6446038,25.8837681 L12.2877736,16.2111884 L13.0616038,11.2450435 L14.1448868,13.1470145 C14.3089245,13.433913 14.5751887,13.6193623 14.8691887,13.6846957 L19.0683962,15.4186667 C20.3715849,16.0322319 21.3003396,14.2077681 19.9987358,13.5942029 Z M7.72166038,15.7278841 L6.39549057,15.7278841 L7.17367925,11.1310145 L8.63179245,10.1623768 L7.72166038,15.7278841 Z" id="Fill-2"></path>
                </g>
            </g>
        </g>
    </g>
</svg>